<svg id="logo" xmlns="http://www.w3.org/2000/svg" viewBox="0 0 72 72" xmlns:xlink="http://www.w3.org/1999/xlink"><style>path,circle{fill:#fff;stroke:#3d4f5d;stroke-width:1px}#sChar{fill:#3d4f5d;stroke:#fff}</style><path id="sChar" d="M45 27.9h-5.5v-1.2c0-1.2-.3-2.3-.9-3.2-.6-.9-1.6-1.4-3-1.4-.7 0-1.4.1-1.8.4-.5.3-.9.7-1.1 1.1-.3.4-.5 1-.6 1.6-.1.6-.1 1.2-.1 1.8 0 .7 0 1.4.1 1.9s.2 1 .4 1.3c.2.4.5.7.9 1 .4.3 1 .6 1.7.9l4.2 1.7c1.2.5 2.2 1 2.9 1.6.7.6 1.3 1.4 1.7 2.2.4.8.7 1.8.8 2.9.1 1.1.2 2.3.2 3.7 0 1.6-.2 3.1-.5 4.5s-.8 2.6-1.6 3.5c-.7 1-1.7 1.8-2.9 2.3-1.2.6-2.7.9-4.4.9-1.3 0-2.5-.2-3.7-.7-1.1-.5-2.1-1.1-2.9-1.9-.8-.8-1.5-1.8-2-2.9-.5-1.1-.7-2.3-.7-3.6v-2h5.5V46c0 1 .3 1.9.9 2.7.6.8 1.6 1.2 3 1.2.9 0 1.6-.1 2.2-.4.5-.3.9-.6 1.2-1.1.3-.5.4-1.1.5-1.8.1-.7.1-1.5.1-2.4 0-1 0-1.8-.1-2.5-.1-.6-.2-1.2-.5-1.6-.2-.4-.6-.7-1-1l-1.6-.8-3.9-1.6c-2.4-1-3.9-2.2-4.7-3.8-.8-1.6-1.2-3.6-1.2-6 0-1.4.2-2.8.6-4.1.4-1.3 1-2.4 1.7-3.3.8-.9 1.7-1.7 2.9-2.2 1.2-.6 2.5-.8 4.1-.8 1.4 0 2.6.2 3.7.7 1.1.5 2.1 1.2 2.9 2 .8.8 1.4 1.7 1.8 2.8.4 1 .6 2.1.6 3.1v2.8z"/><path id="gChar" d="M26.5 25.9c0-1.5.3-2.9.8-4.1.5-1.2 1.2-2.1 2.1-2.9.9-.8 1.9-1.3 2.9-1.7 1.1-.4 2.2-.6 3.3-.6 1.1 0 2.2.2 3.3.6 1.1.4 2.1 1 2.9 1.7.9.8 1.6 1.7 2.1 2.9s.8 2.5.8 4.1v1.9h-5.5v-1.9c0-1.3-.4-2.3-1.1-2.9s-1.6-.9-2.6-.9-1.9.3-2.6.9c-.7.6-1.1 1.6-1.1 2.9V46c0 1.3.4 2.3 1.1 2.9.7.6 1.6.9 2.6.9s1.9-.3 2.6-.9c.7-.6 1.1-1.6 1.1-2.9v-7.2H35V34h9.8v12c0 1.6-.3 2.9-.8 4.1-.5 1.2-1.2 2.1-2.1 2.9-.9.8-1.9 1.3-2.9 1.7-1.1.4-2.2.6-3.3.6-1.1 0-2.2-.2-3.3-.6-1.1-.4-2.1-1-2.9-1.7-.9-.8-1.6-1.7-2.1-2.9s-.8-2.5-.8-4.1V25.9z"/><use id="sCharOver" xlink:href="#sChar"/></svg>